# xmcd
#
# Track frame offsets: 
#        150
#        27785
#        55045
#        74922
#        97807
#        123390
#        151575
#        173715
#        195147
#        221202
#        243715
#        274687
#        302790
#
# Disc length: 4438 seconds
#
# Revision: 4
# Processed by: cddbd v1.5.2PL0 Copyright (c) Steve Scherf et al.
# Submitted via: ExactAudioCopy v1.3
#
DISCID=ae11540d
DTITLE=Stevie Wonder - Conversation Peace
DYEAR=1995
DGENRE=R&B
TTITLE0=Rain Your Love Down
TTITLE1=Edge Of Eternity
TTITLE2=Taboo To Love
TTITLE3=Take The Time Out
TTITLE4=I'm New
TTITLE5=My Love Is With You
TTITLE6=Treat Myself
TTITLE7=Tomorrow Robins Will Sing
TTITLE8=Sensuous Whisper
TTITLE9=For Your Love
TTITLE10=Cold Chill
TTITLE11=Sorry
TTITLE12=Conversation Peace
EXTD=
EXTT0=
EXTT1=
EXTT2=
EXTT3=
EXTT4=
EXTT5=
EXTT6=
EXTT7=
EXTT8=
EXTT9=
EXTT10=
EXTT11=
EXTT12=
PLAYORDER=
